# xmcd CD database file
#
# Track frame offsets:
#	150
#	21438
#	41074
#	63047
#	80958
#	101925
#
# Disc length: 1639 seconds
#
# Revision: 0
# Processed by: cddbd v1.5.2PL0 Copyright (c) Steve Scherf et al.
# Submitted via: CDex 1.70beta2
#
DISCID=50066506
DTITLE=Stille Stars der Szene - Stille Stars der Szene
DYEAR=2009
DGENRE=Jazz
TTITLE0=Jürgen Friedrich - Drift
TTITLE1=Gary Peacock and Marc Copland - All blues
TTITLE2=Loren Stillman - Muted dreams
TTITLE3=Robin Verheyen - On the house
TTITLE4=Marc Copland - Fall
TTITLE5=Henning Sievert's Symmetry - Ubaramarabu
EXTD=YEAR: 2009
EXTT0=
EXTT1=
EXTT2=
EXTT3=
EXTT4=
EXTT5=
PLAYORDER=
